<svg xmlns="http://www.w3.org/2000/svg" viewBox="0 0 256 180">
  <path fill="#FF0000" d="M250.346 28.075A32.18 32.18 0 0 0 227.69 5.418C207.824 0 127.87 0 127.87 0S47.912.164 28.046 5.582A32.18 32.18 0 0 0 5.39 28.24c-6.009 35.298-8.34 89.084.165 122.97a32.18 32.18 0 0 0 22.656 22.657C48.077 179.286 128.03 179.286 128.03 179.286s79.954 0 99.82-5.418a32.18 32.18 0 0 0 22.656-22.657c6.34-35.348 8.293-89.1-.16-123.136Z"/>
  <path fill="#FFFFFF" d="m102.421 128.06 66.328-38.418-66.328-38.418z"/>
</svg>
